<?xml version="1.0" encoding="UTF-8"?>
<!DOCTYPE svg PUBLIC "-//W3C//DTD SVG 1.1//EN" "http://www.w3.org/Graphics/SVG/1.1/DTD/svg11.dtd">
<!-- Creator: CorelDRAW 2017 -->
<svg xmlns="http://www.w3.org/2000/svg" xml:space="preserve" width="993px" height="318px" version="1.1" style="shape-rendering:geometricPrecision; text-rendering:geometricPrecision; image-rendering:optimizeQuality; fill-rule:evenodd; clip-rule:evenodd"
viewBox="0 0 993 318"
 xmlns:xlink="http://www.w3.org/1999/xlink">
 <defs>
  <style type="text/css">
   <![CDATA[
    .fil1 {fill:#91D8F7}
    .fil2 {fill:#00AFEF}
    .fil4 {fill:#0081BF}
    .fil3 {fill:#2957A4}
    .fil0 {fill:#263868}
    .fil6 {fill:#00AFEF;fill-rule:nonzero}
    .fil5 {fill:#263868;fill-rule:nonzero}
   ]]>
  </style>
 </defs>
 <g id="Camada_x0020_1">
  <metadata id="CorelCorpID_0Corel-Layer"/>
  <path class="fil0" d="M110 1c29,-9 60,10 70,42 5,17 4,34 -3,48 1,-8 0,-17 -3,-26 -25,-78 -105,-53 -81,25 3,9 7,17 13,23 -13,-7 -24,-20 -30,-37 -10,-32 5,-65 34,-74z"/>
  <path class="fil0" d="M117 22c13,-4 27,3 31,16 4,13 -3,27 -16,31 -13,4 -27,-3 -31,-16 -4,-13 3,-26 16,-31z"/>
  <path class="fil1" d="M284 61c17,25 9,60 -19,79 -14,10 -31,14 -46,11 8,-2 16,-5 24,-11 67,-47 19,-116 -48,-69 -8,5 -14,12 -18,19 3,-15 12,-29 27,-39 28,-19 64,-15 81,10z"/>
  <path class="fil1" d="M266 74c8,11 5,26 -6,34 -11,8 -26,5 -34,-6 -8,-11 -5,-26 6,-34 11,-8 26,-5 34,6z"/>
  <path class="fil2" d="M285 240c16,-25 7,-61 -21,-79 -15,-10 -32,-13 -47,-10 8,2 17,5 24,10 69,45 23,116 -46,71 -8,-5 -14,-11 -19,-18 4,15 13,29 28,39 28,18 64,13 81,-12z"/>
  <path class="fil2" d="M266 228c7,-11 4,-26 -7,-34 -11,-7 -26,-4 -34,7 -7,11 -4,26 7,34 11,7 26,4 34,-7z"/>
  <path class="fil3" d="M1 150c0,30 27,54 61,54 18,0 33,-7 44,-17 -8,3 -16,5 -26,5 -82,0 -82,-84 0,-84 9,0 18,2 26,5 -11,-11 -27,-17 -44,-17 -34,0 -61,24 -61,54z"/>
  <path class="fil3" d="M23 150c0,13 11,24 24,24 13,0 24,-11 24,-24 0,-13 -11,-24 -24,-24 -13,0 -24,11 -24,24z"/>
  <path class="fil4" d="M103 298c-28,-11 -40,-46 -28,-77 7,-16 19,-28 33,-35 -6,6 -11,13 -14,22 -31,76 48,108 78,32 4,-9 5,-17 5,-26 6,14 6,31 -1,48 -13,31 -45,47 -73,36z"/>
  <path class="fil4" d="M112 277c-12,-5 -18,-19 -13,-32 5,-12 19,-18 32,-13 12,5 18,19 13,32 -5,12 -19,18 -32,13z"/>
  <path class="fil5" d="M461 183l-58 0 0 27 24 0 0 32c-3,1 -9,2 -17,2 -29,0 -49,-19 -49,-51 0,-34 22,-50 51,-50 17,0 28,3 36,7l7 -28c-8,-4 -23,-8 -43,-8 -51,0 -88,29 -88,81 0,23 8,43 22,56 14,14 35,21 63,21 20,0 41,-5 52,-9l0 -82zm14 89l35 0 0 -57c0,-3 0,-6 1,-8 2,-11 11,-18 24,-18 4,0 7,0 9,1l0 -33c-3,0 -4,0 -7,0 -11,0 -25,7 -30,23l-1 0 -1 -21 -30 0c0,10 1,20 1,37l0 75zm181 0c0,-9 -1,-21 -1,-36l0 -76 -35 0 0 67c0,3 0,6 -1,8 -2,6 -8,12 -17,12 -13,0 -17,-10 -17,-26l0 -60 -35 0 0 66c0,36 17,49 40,49 20,0 30,-11 35,-18l1 0 2 16 30 0zm14 46l35 0 0 -56 0 0c5,7 16,13 29,13 25,0 51,-19 51,-60 0,-36 -22,-57 -47,-57 -16,0 -29,6 -37,18l0 0 -2 -16 -30 0c0,10 1,23 1,38l0 120zm35 -109c0,-2 0,-4 1,-6 2,-10 11,-18 21,-18 16,0 24,14 24,31 0,19 -9,32 -24,32 -10,0 -18,-7 -20,-17 0,-2 -1,-5 -1,-7l0 -15zm144 -51c-33,0 -60,21 -60,59 0,37 25,59 57,59 28,0 60,-17 60,-59 0,-36 -24,-59 -57,-59zm-1 25c17,0 23,18 23,34 0,18 -7,33 -23,33 -16,0 -23,-15 -23,-33 0,-16 6,-34 23,-34zm61 85c9,5 22,8 36,8 32,0 49,-16 49,-37 0,-17 -9,-27 -31,-35 -14,-5 -18,-8 -18,-13 0,-6 5,-9 13,-9 10,0 19,4 24,6l6 -24c-7,-3 -19,-6 -32,-6 -28,0 -46,16 -46,37 0,13 9,26 32,34 13,4 17,7 17,13 0,6 -4,9 -15,9 -10,0 -24,-5 -30,-9l-6 25z"/>
  <path class="fil6" d="M324 103l20 0 0 -32c2,0 4,0 7,0 12,0 22,-3 29,-9 5,-5 8,-12 8,-21 0,-9 -4,-16 -9,-21 -6,-5 -15,-7 -27,-7 -12,0 -21,1 -27,2l0 88zm20 -74c1,0 4,-1 8,-1 10,0 16,5 16,13 0,9 -7,14 -17,14 -3,0 -5,0 -7,0l0 -26zm102 48c0,-1 1,-4 1,-8 0,-16 -8,-32 -29,-32 -22,0 -33,18 -33,34 0,20 13,33 34,33 9,0 17,-1 23,-4l-3 -14c-5,2 -11,3 -18,3 -9,0 -18,-4 -18,-12l41 0zm-42 -14c1,-5 4,-13 12,-13 9,0 11,8 11,13l-24 0zm89 66l20 0 0 -71c0,-7 0,-13 0,-19l-19 0 -1 8 0 0c-4,-6 -10,-9 -18,-9 -14,0 -28,11 -28,34 0,21 13,33 27,33 9,0 15,-3 19,-9l0 0 0 34zm0 -54c0,1 0,3 -1,4 -1,5 -6,9 -12,9 -8,0 -14,-7 -14,-18 0,-10 5,-18 14,-18 6,0 10,4 11,10 0,1 0,2 0,3l0 10zm90 28c0,-5 -1,-12 -1,-21l0 -44 -20 0 0 38c0,2 0,3 -1,4 -1,3 -5,7 -10,7 -7,0 -10,-6 -10,-15l0 -35 -20 0 0 38c0,20 10,28 23,28 11,0 17,-6 20,-11l0 0 1 9 17 0zm65 -26c0,-1 1,-4 1,-8 0,-16 -8,-32 -29,-32 -22,0 -33,18 -33,34 0,20 13,33 34,33 9,0 17,-1 23,-4l-3 -14c-5,2 -11,3 -18,3 -9,0 -18,-4 -18,-12l41 0zm-42 -14c1,-5 4,-13 12,-13 9,0 11,8 11,13l-24 0zm47 39l20 0 0 -37c0,-2 0,-4 1,-5 1,-4 5,-8 10,-8 7,0 10,6 10,14l0 36 20 0 0 -38c0,-19 -10,-28 -23,-28 -11,0 -17,6 -20,10l0 0 -1 -9 -17 0c0,6 1,13 1,21l0 44zm101 -66c-19,0 -34,12 -34,34 0,21 14,34 33,34 16,0 35,-10 35,-34 0,-21 -14,-34 -33,-34zm-1 14c10,0 13,10 13,20 0,10 -4,19 -13,19 -9,0 -13,-9 -13,-19 0,-9 3,-20 13,-20zm35 48c5,3 12,5 21,5 18,0 28,-9 28,-21 0,-9 -5,-16 -18,-20 -8,-3 -10,-4 -10,-7 0,-3 3,-5 8,-5 6,0 11,2 14,4l4 -14c-4,-2 -11,-4 -18,-4 -16,0 -26,9 -26,21 0,8 5,15 18,19 8,3 9,4 9,7 0,3 -3,5 -9,5 -6,0 -14,-3 -17,-5l-4 14z"/>
 </g>
</svg>
